<svg xmlns="http://www.w3.org/2000/svg" viewBox="0 0 64 64">
  <defs>
    <linearGradient id="iceCoreGrad" x1="0%" y1="0%" x2="100%" y2="100%">
      <stop offset="0%" stop-color="#38bdf8"/>
      <stop offset="100%" stop-color="#0ea5e9"/>
    </linearGradient>
  </defs>
  
  <rect width="64" height="64" rx="14" fill="#050816"/>
  
  <g transform="translate(32, 32)">
    <path d="M0 -28 L24.2 -14 V14 L0 28 L-24.2 14 V-14 Z" fill="none" stroke="url(#iceCoreGrad)" stroke-width="2" opacity="0.5"/>
    
    <circle cx="0" cy="0" r="20" fill="none" stroke="url(#iceCoreGrad)" stroke-width="1.5"/>
    
    <g fill="url(#iceCoreGrad)">
        <path d="M-2 -5 L2 -5 L6 -18 C6 -18 0 -22 -6 -18 L-2 -5 Z"/>
        <path d="M-2 -5 L2 -5 L6 -18 C6 -18 0 -22 -6 -18 L-2 -5 Z" transform="rotate(60)"/>
        <path d="M-2 -5 L2 -5 L6 -18 C6 -18 0 -22 -6 -18 L-2 -5 Z" transform="rotate(120)"/>
        <path d="M-2 -5 L2 -5 L6 -18 C6 -18 0 -22 -6 -18 L-2 -5 Z" transform="rotate(180)"/>
        <path d="M-2 -5 L2 -5 L6 -18 C6 -18 0 -22 -6 -18 L-2 -5 Z" transform="rotate(240)"/>
        <path d="M-2 -5 L2 -5 L6 -18 C6 -18 0 -22 -6 -18 L-2 -5 Z" transform="rotate(300)"/>
    </g>
    
    <circle cx="0" cy="0" r="5" fill="#FFFFFF"/>
    <circle cx="0" cy="0" r="2.5" fill="#38bdf8"/>
  </g>
</svg>